<mxfile host="app.diagrams.net" modified="2022-07-09T22:01:22.725Z" agent="5.0 (Macintosh; Intel Mac OS X 10_14_6) AppleWebKit/605.1.15 (KHTML, like Gecko) Version/14.1.2 Safari/605.1.15" etag="HeyjaZxxbmLTOwr9TrUx" version="20.0.4" type="github">
  <diagram id="ypMhJz91cpn1MqjeLnP9" name="Page-1">
    <mxGraphModel dx="1186" dy="811" grid="0" gridSize="10" guides="1" tooltips="1" connect="1" arrows="1" fold="1" page="1" pageScale="1" pageWidth="827" pageHeight="1169" math="0" shadow="0">
      <root>
        <mxCell id="0" />
        <mxCell id="1" parent="0" />
        <mxCell id="4SS2FwS2F6CoJK4nkJKZ-31" style="edgeStyle=orthogonalEdgeStyle;curved=1;orthogonalLoop=1;jettySize=auto;html=1;strokeColor=default;" edge="1" parent="1" source="4SS2FwS2F6CoJK4nkJKZ-1" target="4SS2FwS2F6CoJK4nkJKZ-9">
          <mxGeometry relative="1" as="geometry">
            <Array as="points">
              <mxPoint x="275" y="453" />
              <mxPoint x="275" y="443" />
            </Array>
          </mxGeometry>
        </mxCell>
        <mxCell id="4SS2FwS2F6CoJK4nkJKZ-1" value="Receive customer files&amp;nbsp;" style="ellipse;whiteSpace=wrap;html=1;aspect=fixed;" vertex="1" parent="1">
          <mxGeometry x="105" y="388" width="130" height="130" as="geometry" />
        </mxCell>
        <mxCell id="4SS2FwS2F6CoJK4nkJKZ-33" style="edgeStyle=orthogonalEdgeStyle;curved=1;orthogonalLoop=1;jettySize=auto;html=1;exitX=0.5;exitY=0.5;exitDx=0;exitDy=0;exitPerimeter=0;strokeColor=#FF0000;" edge="1" parent="1" source="4SS2FwS2F6CoJK4nkJKZ-2" target="4SS2FwS2F6CoJK4nkJKZ-32">
          <mxGeometry relative="1" as="geometry" />
        </mxCell>
        <mxCell id="4SS2FwS2F6CoJK4nkJKZ-35" value="threat" style="edgeLabel;html=1;align=center;verticalAlign=middle;resizable=0;points=[];fontColor=#FF0000;" vertex="1" connectable="0" parent="4SS2FwS2F6CoJK4nkJKZ-33">
          <mxGeometry x="0.1581" y="3" relative="1" as="geometry">
            <mxPoint as="offset" />
          </mxGeometry>
        </mxCell>
        <mxCell id="4SS2FwS2F6CoJK4nkJKZ-42" style="edgeStyle=orthogonalEdgeStyle;curved=1;orthogonalLoop=1;jettySize=auto;html=1;entryX=0.5;entryY=1;entryDx=0;entryDy=0;fontColor=#FF0000;strokeColor=#FF0000;" edge="1" parent="1" source="4SS2FwS2F6CoJK4nkJKZ-2" target="4SS2FwS2F6CoJK4nkJKZ-39">
          <mxGeometry relative="1" as="geometry">
            <Array as="points">
              <mxPoint x="712" y="626" />
              <mxPoint x="778" y="626" />
              <mxPoint x="778" y="787" />
              <mxPoint x="696" y="787" />
            </Array>
          </mxGeometry>
        </mxCell>
        <mxCell id="4SS2FwS2F6CoJK4nkJKZ-45" value="threats" style="edgeLabel;html=1;align=center;verticalAlign=middle;resizable=0;points=[];fontColor=#FF0000;" vertex="1" connectable="0" parent="4SS2FwS2F6CoJK4nkJKZ-42">
          <mxGeometry x="0.1648" y="1" relative="1" as="geometry">
            <mxPoint as="offset" />
          </mxGeometry>
        </mxCell>
        <mxCell id="4SS2FwS2F6CoJK4nkJKZ-50" style="edgeStyle=orthogonalEdgeStyle;curved=1;orthogonalLoop=1;jettySize=auto;html=1;entryX=1;entryY=0.5;entryDx=0;entryDy=0;fontColor=#FF0000;strokeColor=#FF0000;exitX=1;exitY=0.3333333333333333;exitDx=0;exitDy=0;exitPerimeter=0;" edge="1" parent="1" source="4SS2FwS2F6CoJK4nkJKZ-2" target="4SS2FwS2F6CoJK4nkJKZ-47">
          <mxGeometry relative="1" as="geometry">
            <Array as="points">
              <mxPoint x="796" y="540" />
              <mxPoint x="796" y="874" />
            </Array>
          </mxGeometry>
        </mxCell>
        <mxCell id="4SS2FwS2F6CoJK4nkJKZ-51" value="threats" style="edgeLabel;html=1;align=center;verticalAlign=middle;resizable=0;points=[];fontColor=#FF0000;" vertex="1" connectable="0" parent="4SS2FwS2F6CoJK4nkJKZ-50">
          <mxGeometry x="0.5973" y="-2" relative="1" as="geometry">
            <mxPoint as="offset" />
          </mxGeometry>
        </mxCell>
        <mxCell id="4SS2FwS2F6CoJK4nkJKZ-74" style="edgeStyle=orthogonalEdgeStyle;curved=1;orthogonalLoop=1;jettySize=auto;html=1;fontColor=#000000;strokeColor=#FF0000;" edge="1" parent="1" source="4SS2FwS2F6CoJK4nkJKZ-2" target="4SS2FwS2F6CoJK4nkJKZ-57">
          <mxGeometry relative="1" as="geometry" />
        </mxCell>
        <mxCell id="4SS2FwS2F6CoJK4nkJKZ-2" value="Malicious User" style="shape=umlActor;verticalLabelPosition=bottom;verticalAlign=top;html=1;outlineConnect=0;" vertex="1" parent="1">
          <mxGeometry x="689" y="504" width="46" height="90" as="geometry" />
        </mxCell>
        <mxCell id="4SS2FwS2F6CoJK4nkJKZ-8" style="edgeStyle=orthogonalEdgeStyle;orthogonalLoop=1;jettySize=auto;html=1;entryX=0;entryY=0.5;entryDx=0;entryDy=0;curved=1;exitX=0.5;exitY=0;exitDx=0;exitDy=0;" edge="1" parent="1" source="4SS2FwS2F6CoJK4nkJKZ-7" target="4SS2FwS2F6CoJK4nkJKZ-1">
          <mxGeometry relative="1" as="geometry">
            <mxPoint x="80" y="598" as="sourcePoint" />
          </mxGeometry>
        </mxCell>
        <mxCell id="4SS2FwS2F6CoJK4nkJKZ-12" style="edgeStyle=orthogonalEdgeStyle;orthogonalLoop=1;jettySize=auto;html=1;curved=1;" edge="1" parent="1" target="4SS2FwS2F6CoJK4nkJKZ-11">
          <mxGeometry relative="1" as="geometry">
            <mxPoint x="80" y="678" as="sourcePoint" />
          </mxGeometry>
        </mxCell>
        <mxCell id="4SS2FwS2F6CoJK4nkJKZ-18" style="edgeStyle=orthogonalEdgeStyle;orthogonalLoop=1;jettySize=auto;html=1;exitX=1;exitY=0.5;exitDx=0;exitDy=0;curved=1;" edge="1" parent="1" target="4SS2FwS2F6CoJK4nkJKZ-17">
          <mxGeometry relative="1" as="geometry">
            <mxPoint x="155" y="638" as="sourcePoint" />
          </mxGeometry>
        </mxCell>
        <mxCell id="4SS2FwS2F6CoJK4nkJKZ-59" style="edgeStyle=orthogonalEdgeStyle;curved=1;orthogonalLoop=1;jettySize=auto;html=1;entryX=0;entryY=0.5;entryDx=0;entryDy=0;fontColor=#000000;strokeColor=#0066CC;" edge="1" parent="1" source="4SS2FwS2F6CoJK4nkJKZ-7" target="4SS2FwS2F6CoJK4nkJKZ-52">
          <mxGeometry relative="1" as="geometry">
            <Array as="points">
              <mxPoint x="85" y="525" />
              <mxPoint x="21" y="525" />
              <mxPoint x="21" y="305" />
            </Array>
          </mxGeometry>
        </mxCell>
        <mxCell id="4SS2FwS2F6CoJK4nkJKZ-60" value="prevent" style="edgeLabel;html=1;align=center;verticalAlign=middle;resizable=0;points=[];fontColor=#000000;" vertex="1" connectable="0" parent="4SS2FwS2F6CoJK4nkJKZ-59">
          <mxGeometry x="0.4775" y="-6" relative="1" as="geometry">
            <mxPoint as="offset" />
          </mxGeometry>
        </mxCell>
        <mxCell id="4SS2FwS2F6CoJK4nkJKZ-63" style="edgeStyle=orthogonalEdgeStyle;curved=1;orthogonalLoop=1;jettySize=auto;html=1;fontColor=#000000;strokeColor=#0066CC;" edge="1" parent="1" source="4SS2FwS2F6CoJK4nkJKZ-7" target="4SS2FwS2F6CoJK4nkJKZ-54">
          <mxGeometry relative="1" as="geometry">
            <Array as="points">
              <mxPoint x="200" y="639" />
              <mxPoint x="200" y="560" />
            </Array>
          </mxGeometry>
        </mxCell>
        <mxCell id="4SS2FwS2F6CoJK4nkJKZ-66" value="prevent" style="edgeLabel;html=1;align=center;verticalAlign=middle;resizable=0;points=[];fontColor=#000000;" vertex="1" connectable="0" parent="4SS2FwS2F6CoJK4nkJKZ-63">
          <mxGeometry x="-0.2659" y="-1" relative="1" as="geometry">
            <mxPoint x="-2" y="-26" as="offset" />
          </mxGeometry>
        </mxCell>
        <mxCell id="4SS2FwS2F6CoJK4nkJKZ-64" style="edgeStyle=orthogonalEdgeStyle;curved=1;orthogonalLoop=1;jettySize=auto;html=1;entryX=0.5;entryY=1;entryDx=0;entryDy=0;fontColor=#000000;strokeColor=#0066CC;exitX=0.444;exitY=0.987;exitDx=0;exitDy=0;exitPerimeter=0;" edge="1" parent="1" source="4SS2FwS2F6CoJK4nkJKZ-7" target="4SS2FwS2F6CoJK4nkJKZ-53">
          <mxGeometry relative="1" as="geometry">
            <mxPoint x="80" y="683" as="sourcePoint" />
            <Array as="points">
              <mxPoint x="58" y="677" />
              <mxPoint x="58" y="1040" />
              <mxPoint x="371" y="1040" />
            </Array>
          </mxGeometry>
        </mxCell>
        <mxCell id="4SS2FwS2F6CoJK4nkJKZ-65" value="prevent" style="edgeLabel;html=1;align=center;verticalAlign=middle;resizable=0;points=[];fontColor=#000000;" vertex="1" connectable="0" parent="4SS2FwS2F6CoJK4nkJKZ-64">
          <mxGeometry x="-0.1371" y="24" relative="1" as="geometry">
            <mxPoint x="16" y="2" as="offset" />
          </mxGeometry>
        </mxCell>
        <mxCell id="4SS2FwS2F6CoJK4nkJKZ-7" value="System" style="label;whiteSpace=wrap;html=1;align=center;verticalAlign=bottom;spacingLeft=0;spacingBottom=4;imageAlign=center;imageVerticalAlign=top;image=img/clipart/Gear_128x128.png" vertex="1" parent="1">
          <mxGeometry x="11" y="600" width="147" height="78" as="geometry" />
        </mxCell>
        <mxCell id="4SS2FwS2F6CoJK4nkJKZ-15" style="edgeStyle=orthogonalEdgeStyle;orthogonalLoop=1;jettySize=auto;html=1;curved=1;" edge="1" parent="1" source="4SS2FwS2F6CoJK4nkJKZ-9" target="4SS2FwS2F6CoJK4nkJKZ-14">
          <mxGeometry relative="1" as="geometry" />
        </mxCell>
        <mxCell id="4SS2FwS2F6CoJK4nkJKZ-9" value="Parse CSV into array list containing lists corresponding to each row &amp;nbsp;&amp;nbsp;" style="ellipse;whiteSpace=wrap;html=1;aspect=fixed;" vertex="1" parent="1">
          <mxGeometry x="287" y="378" width="120" height="120" as="geometry" />
        </mxCell>
        <mxCell id="4SS2FwS2F6CoJK4nkJKZ-19" style="edgeStyle=orthogonalEdgeStyle;orthogonalLoop=1;jettySize=auto;html=1;curved=1;" edge="1" parent="1" source="4SS2FwS2F6CoJK4nkJKZ-11" target="4SS2FwS2F6CoJK4nkJKZ-14">
          <mxGeometry relative="1" as="geometry" />
        </mxCell>
        <mxCell id="4SS2FwS2F6CoJK4nkJKZ-11" value="Parse CSV to compare with into an array list&amp;nbsp;containing lists corresponding to each row &amp;nbsp;&amp;nbsp;" style="ellipse;whiteSpace=wrap;html=1;aspect=fixed;" vertex="1" parent="1">
          <mxGeometry x="76" y="748" width="119" height="119" as="geometry" />
        </mxCell>
        <mxCell id="4SS2FwS2F6CoJK4nkJKZ-24" style="edgeStyle=orthogonalEdgeStyle;orthogonalLoop=1;jettySize=auto;html=1;curved=1;" edge="1" parent="1" target="4SS2FwS2F6CoJK4nkJKZ-21">
          <mxGeometry relative="1" as="geometry">
            <mxPoint x="465" y="658" as="sourcePoint" />
          </mxGeometry>
        </mxCell>
        <mxCell id="4SS2FwS2F6CoJK4nkJKZ-27" value="else" style="edgeLabel;html=1;align=center;verticalAlign=middle;resizable=0;points=[];" vertex="1" connectable="0" parent="4SS2FwS2F6CoJK4nkJKZ-24">
          <mxGeometry x="0.0275" y="-2" relative="1" as="geometry">
            <mxPoint x="-7" y="9" as="offset" />
          </mxGeometry>
        </mxCell>
        <mxCell id="4SS2FwS2F6CoJK4nkJKZ-25" style="edgeStyle=orthogonalEdgeStyle;orthogonalLoop=1;jettySize=auto;html=1;exitX=0.969;exitY=0.295;exitDx=0;exitDy=0;exitPerimeter=0;curved=1;strokeColor=default;" edge="1" parent="1" source="4SS2FwS2F6CoJK4nkJKZ-14" target="4SS2FwS2F6CoJK4nkJKZ-14">
          <mxGeometry relative="1" as="geometry">
            <mxPoint x="555" y="578" as="targetPoint" />
            <Array as="points">
              <mxPoint x="452" y="578" />
              <mxPoint x="545" y="578" />
              <mxPoint x="545" y="658" />
            </Array>
          </mxGeometry>
        </mxCell>
        <mxCell id="4SS2FwS2F6CoJK4nkJKZ-26" value="if match" style="edgeLabel;html=1;align=center;verticalAlign=middle;resizable=0;points=[];" vertex="1" connectable="0" parent="4SS2FwS2F6CoJK4nkJKZ-25">
          <mxGeometry x="-0.3111" y="1" relative="1" as="geometry">
            <mxPoint as="offset" />
          </mxGeometry>
        </mxCell>
        <mxCell id="4SS2FwS2F6CoJK4nkJKZ-14" value="Compare both array lists row by row&amp;nbsp;" style="ellipse;whiteSpace=wrap;html=1;aspect=fixed;" vertex="1" parent="1">
          <mxGeometry x="355" y="598" width="100" height="100" as="geometry" />
        </mxCell>
        <mxCell id="4SS2FwS2F6CoJK4nkJKZ-68" value="" style="edgeStyle=orthogonalEdgeStyle;curved=1;orthogonalLoop=1;jettySize=auto;html=1;fontColor=#000000;strokeColor=#0066CC;" edge="1" parent="1" source="4SS2FwS2F6CoJK4nkJKZ-17" target="4SS2FwS2F6CoJK4nkJKZ-7">
          <mxGeometry relative="1" as="geometry" />
        </mxCell>
        <mxCell id="4SS2FwS2F6CoJK4nkJKZ-17" value="create output csv file&amp;nbsp;" style="ellipse;whiteSpace=wrap;html=1;aspect=fixed;" vertex="1" parent="1">
          <mxGeometry x="208" y="598" width="80" height="80" as="geometry" />
        </mxCell>
        <mxCell id="4SS2FwS2F6CoJK4nkJKZ-29" style="edgeStyle=orthogonalEdgeStyle;curved=1;orthogonalLoop=1;jettySize=auto;html=1;strokeColor=default;exitX=0.5;exitY=1;exitDx=0;exitDy=0;" edge="1" parent="1" source="4SS2FwS2F6CoJK4nkJKZ-21" target="4SS2FwS2F6CoJK4nkJKZ-14">
          <mxGeometry relative="1" as="geometry" />
        </mxCell>
        <mxCell id="4SS2FwS2F6CoJK4nkJKZ-30" value="continue for all rows" style="edgeLabel;html=1;align=center;verticalAlign=middle;resizable=0;points=[];" vertex="1" connectable="0" parent="4SS2FwS2F6CoJK4nkJKZ-29">
          <mxGeometry x="-0.225" y="-6" relative="1" as="geometry">
            <mxPoint as="offset" />
          </mxGeometry>
        </mxCell>
        <mxCell id="4SS2FwS2F6CoJK4nkJKZ-21" value="add exception list to output.csv" style="ellipse;whiteSpace=wrap;html=1;aspect=fixed;" vertex="1" parent="1">
          <mxGeometry x="513" y="721" width="80" height="80" as="geometry" />
        </mxCell>
        <mxCell id="4SS2FwS2F6CoJK4nkJKZ-34" style="edgeStyle=orthogonalEdgeStyle;curved=1;orthogonalLoop=1;jettySize=auto;html=1;strokeColor=#FF0000;" edge="1" parent="1" source="4SS2FwS2F6CoJK4nkJKZ-32" target="4SS2FwS2F6CoJK4nkJKZ-9">
          <mxGeometry relative="1" as="geometry" />
        </mxCell>
        <mxCell id="4SS2FwS2F6CoJK4nkJKZ-38" value="threat" style="edgeLabel;html=1;align=center;verticalAlign=middle;resizable=0;points=[];fontColor=#FF0000;" vertex="1" connectable="0" parent="4SS2FwS2F6CoJK4nkJKZ-34">
          <mxGeometry y="1" relative="1" as="geometry">
            <mxPoint as="offset" />
          </mxGeometry>
        </mxCell>
        <mxCell id="4SS2FwS2F6CoJK4nkJKZ-32" value="blocks parsing csv to array list" style="ellipse;whiteSpace=wrap;html=1;" vertex="1" parent="1">
          <mxGeometry x="517" y="444" width="124" height="101" as="geometry" />
        </mxCell>
        <mxCell id="4SS2FwS2F6CoJK4nkJKZ-43" style="edgeStyle=orthogonalEdgeStyle;curved=1;orthogonalLoop=1;jettySize=auto;html=1;fontColor=#FF0000;strokeColor=#FF0000;" edge="1" parent="1" source="4SS2FwS2F6CoJK4nkJKZ-39">
          <mxGeometry relative="1" as="geometry">
            <mxPoint x="405" y="698" as="targetPoint" />
            <Array as="points">
              <mxPoint x="696" y="657" />
              <mxPoint x="548" y="657" />
              <mxPoint x="548" y="701" />
              <mxPoint x="503" y="701" />
              <mxPoint x="503" y="729" />
              <mxPoint x="405" y="729" />
            </Array>
          </mxGeometry>
        </mxCell>
        <mxCell id="4SS2FwS2F6CoJK4nkJKZ-44" value="threats" style="edgeLabel;html=1;align=center;verticalAlign=middle;resizable=0;points=[];fontColor=#FF0000;" vertex="1" connectable="0" parent="4SS2FwS2F6CoJK4nkJKZ-43">
          <mxGeometry x="0.1916" relative="1" as="geometry">
            <mxPoint x="-4" y="5" as="offset" />
          </mxGeometry>
        </mxCell>
        <mxCell id="4SS2FwS2F6CoJK4nkJKZ-39" value="modifies account balance in array lost" style="ellipse;whiteSpace=wrap;html=1;" vertex="1" parent="1">
          <mxGeometry x="634" y="666" width="124" height="101" as="geometry" />
        </mxCell>
        <mxCell id="4SS2FwS2F6CoJK4nkJKZ-48" style="edgeStyle=orthogonalEdgeStyle;curved=1;orthogonalLoop=1;jettySize=auto;html=1;entryX=1;entryY=0.5;entryDx=0;entryDy=0;fontColor=#000000;strokeColor=#FF0000;" edge="1" parent="1" source="4SS2FwS2F6CoJK4nkJKZ-47" target="4SS2FwS2F6CoJK4nkJKZ-21">
          <mxGeometry relative="1" as="geometry" />
        </mxCell>
        <mxCell id="4SS2FwS2F6CoJK4nkJKZ-49" value="&lt;font color=&quot;#ff0000&quot;&gt;threats&lt;/font&gt;" style="edgeLabel;html=1;align=center;verticalAlign=middle;resizable=0;points=[];fontColor=#000000;" vertex="1" connectable="0" parent="4SS2FwS2F6CoJK4nkJKZ-48">
          <mxGeometry x="0.0205" y="-1" relative="1" as="geometry">
            <mxPoint as="offset" />
          </mxGeometry>
        </mxCell>
        <mxCell id="4SS2FwS2F6CoJK4nkJKZ-47" value="&lt;font color=&quot;#000000&quot;&gt;manipulate adding malicious content to output.csv&lt;/font&gt;" style="ellipse;whiteSpace=wrap;html=1;aspect=fixed;fontColor=#FF0000;" vertex="1" parent="1">
          <mxGeometry x="651" y="813" width="122" height="122" as="geometry" />
        </mxCell>
        <mxCell id="4SS2FwS2F6CoJK4nkJKZ-61" style="edgeStyle=orthogonalEdgeStyle;curved=1;orthogonalLoop=1;jettySize=auto;html=1;entryX=0.5;entryY=0;entryDx=0;entryDy=0;fontColor=#000000;strokeColor=#0066CC;" edge="1" parent="1" source="4SS2FwS2F6CoJK4nkJKZ-52" target="4SS2FwS2F6CoJK4nkJKZ-57">
          <mxGeometry relative="1" as="geometry">
            <Array as="points">
              <mxPoint x="136" y="228" />
              <mxPoint x="723" y="228" />
            </Array>
          </mxGeometry>
        </mxCell>
        <mxCell id="4SS2FwS2F6CoJK4nkJKZ-62" value="prevent" style="edgeLabel;html=1;align=center;verticalAlign=middle;resizable=0;points=[];fontColor=#000000;" vertex="1" connectable="0" parent="4SS2FwS2F6CoJK4nkJKZ-61">
          <mxGeometry x="-0.2764" y="-5" relative="1" as="geometry">
            <mxPoint x="2" y="-7" as="offset" />
          </mxGeometry>
        </mxCell>
        <mxCell id="4SS2FwS2F6CoJK4nkJKZ-52" value="&lt;font color=&quot;#000000&quot;&gt;encrypt account details&amp;nbsp;&lt;/font&gt;" style="ellipse;whiteSpace=wrap;html=1;aspect=fixed;fontColor=#FF0000;" vertex="1" parent="1">
          <mxGeometry x="85.5" y="255" width="100" height="100" as="geometry" />
        </mxCell>
        <mxCell id="4SS2FwS2F6CoJK4nkJKZ-71" value="prevent" style="edgeStyle=orthogonalEdgeStyle;curved=1;orthogonalLoop=1;jettySize=auto;html=1;entryX=0;entryY=0.5;entryDx=0;entryDy=0;fontColor=#000000;strokeColor=#0066CC;" edge="1" parent="1" source="4SS2FwS2F6CoJK4nkJKZ-53" target="4SS2FwS2F6CoJK4nkJKZ-47">
          <mxGeometry relative="1" as="geometry" />
        </mxCell>
        <mxCell id="4SS2FwS2F6CoJK4nkJKZ-78" style="edgeStyle=orthogonalEdgeStyle;curved=1;orthogonalLoop=1;jettySize=auto;html=1;entryX=0;entryY=0.5;entryDx=0;entryDy=0;fontColor=#000000;strokeColor=#0066CC;exitX=0.5;exitY=0;exitDx=0;exitDy=0;" edge="1" parent="1" source="4SS2FwS2F6CoJK4nkJKZ-53" target="4SS2FwS2F6CoJK4nkJKZ-32">
          <mxGeometry relative="1" as="geometry">
            <Array as="points">
              <mxPoint x="298" y="864" />
              <mxPoint x="298" y="494" />
            </Array>
          </mxGeometry>
        </mxCell>
        <mxCell id="4SS2FwS2F6CoJK4nkJKZ-53" value="&lt;font color=&quot;#000000&quot;&gt;periodic network scan&lt;/font&gt;" style="ellipse;whiteSpace=wrap;html=1;aspect=fixed;fontColor=#FF0000;" vertex="1" parent="1">
          <mxGeometry x="321" y="864" width="100" height="100" as="geometry" />
        </mxCell>
        <mxCell id="4SS2FwS2F6CoJK4nkJKZ-69" style="edgeStyle=orthogonalEdgeStyle;curved=1;orthogonalLoop=1;jettySize=auto;html=1;fontColor=#000000;strokeColor=#0066CC;" edge="1" parent="1" source="4SS2FwS2F6CoJK4nkJKZ-54" target="4SS2FwS2F6CoJK4nkJKZ-32">
          <mxGeometry relative="1" as="geometry">
            <mxPoint x="452" y="532" as="targetPoint" />
          </mxGeometry>
        </mxCell>
        <mxCell id="4SS2FwS2F6CoJK4nkJKZ-72" value="prevent" style="edgeLabel;html=1;align=center;verticalAlign=middle;resizable=0;points=[];fontColor=#000000;" vertex="1" connectable="0" parent="4SS2FwS2F6CoJK4nkJKZ-69">
          <mxGeometry x="0.3734" y="-6" relative="1" as="geometry">
            <mxPoint as="offset" />
          </mxGeometry>
        </mxCell>
        <mxCell id="4SS2FwS2F6CoJK4nkJKZ-70" style="edgeStyle=orthogonalEdgeStyle;curved=1;orthogonalLoop=1;jettySize=auto;html=1;fontColor=#000000;strokeColor=#0066CC;" edge="1" parent="1" source="4SS2FwS2F6CoJK4nkJKZ-54" target="4SS2FwS2F6CoJK4nkJKZ-39">
          <mxGeometry relative="1" as="geometry">
            <Array as="points">
              <mxPoint x="696" y="532" />
            </Array>
          </mxGeometry>
        </mxCell>
        <mxCell id="4SS2FwS2F6CoJK4nkJKZ-73" value="prevent" style="edgeLabel;html=1;align=center;verticalAlign=middle;resizable=0;points=[];fontColor=#000000;" vertex="1" connectable="0" parent="4SS2FwS2F6CoJK4nkJKZ-70">
          <mxGeometry x="0.0975" y="-31" relative="1" as="geometry">
            <mxPoint x="-1" as="offset" />
          </mxGeometry>
        </mxCell>
        <mxCell id="4SS2FwS2F6CoJK4nkJKZ-76" style="edgeStyle=orthogonalEdgeStyle;curved=1;orthogonalLoop=1;jettySize=auto;html=1;entryX=0.5;entryY=1;entryDx=0;entryDy=0;fontColor=#FF0000;strokeColor=#0066CC;" edge="1" parent="1" source="4SS2FwS2F6CoJK4nkJKZ-54" target="4SS2FwS2F6CoJK4nkJKZ-32">
          <mxGeometry relative="1" as="geometry" />
        </mxCell>
        <mxCell id="4SS2FwS2F6CoJK4nkJKZ-77" value="&lt;font color=&quot;#000000&quot;&gt;prevent&lt;/font&gt;" style="edgeLabel;html=1;align=center;verticalAlign=middle;resizable=0;points=[];fontColor=#FF0000;" vertex="1" connectable="0" parent="4SS2FwS2F6CoJK4nkJKZ-76">
          <mxGeometry x="0.1174" relative="1" as="geometry">
            <mxPoint as="offset" />
          </mxGeometry>
        </mxCell>
        <mxCell id="4SS2FwS2F6CoJK4nkJKZ-54" value="&lt;font color=&quot;#000000&quot;&gt;ip check&lt;/font&gt;" style="ellipse;whiteSpace=wrap;html=1;aspect=fixed;fontColor=#FF0000;" vertex="1" parent="1">
          <mxGeometry x="226" y="482" width="100" height="100" as="geometry" />
        </mxCell>
        <mxCell id="4SS2FwS2F6CoJK4nkJKZ-58" style="edgeStyle=orthogonalEdgeStyle;curved=1;orthogonalLoop=1;jettySize=auto;html=1;entryX=0.5;entryY=0;entryDx=0;entryDy=0;fontColor=#000000;strokeColor=#FF0000;" edge="1" parent="1" source="4SS2FwS2F6CoJK4nkJKZ-57" target="4SS2FwS2F6CoJK4nkJKZ-9">
          <mxGeometry relative="1" as="geometry">
            <Array as="points">
              <mxPoint x="527" y="395" />
              <mxPoint x="527" y="311" />
              <mxPoint x="347" y="311" />
            </Array>
          </mxGeometry>
        </mxCell>
        <mxCell id="4SS2FwS2F6CoJK4nkJKZ-75" value="&lt;font color=&quot;#ff0000&quot;&gt;threat&lt;/font&gt;" style="edgeLabel;html=1;align=center;verticalAlign=middle;resizable=0;points=[];fontColor=#000000;" vertex="1" connectable="0" parent="4SS2FwS2F6CoJK4nkJKZ-58">
          <mxGeometry x="-0.1863" y="4" relative="1" as="geometry">
            <mxPoint as="offset" />
          </mxGeometry>
        </mxCell>
        <mxCell id="4SS2FwS2F6CoJK4nkJKZ-57" value="&lt;font color=&quot;#000000&quot;&gt;steal user account details&amp;nbsp;&lt;/font&gt;" style="ellipse;whiteSpace=wrap;html=1;aspect=fixed;fontColor=#FF0000;" vertex="1" parent="1">
          <mxGeometry x="662" y="336" width="122" height="122" as="geometry" />
        </mxCell>
      </root>
    </mxGraphModel>
  </diagram>
</mxfile>
